<svg width="180" height="163" viewBox="0 0 180 163" fill="none" xmlns="http://www.w3.org/2000/svg">
<path fill-rule="evenodd" clip-rule="evenodd" d="M20.2019 116.193C17.4457 116.193 14.1747 116.778 10.6007 120.926V109.318C10.6007 106.385 8.22312 104 5.30035 104C2.37759 104 0 106.385 0 109.318V147.173C0 150.105 2.37759 152.49 5.30035 152.49C8.22312 152.49 10.6007 150.105 10.6007 147.173V132.48C10.6007 128.257 12.5997 125.924 16.2418 125.924C19.8082 125.924 21.686 128.188 21.686 132.48V147.173C21.686 150.105 24.0636 152.49 26.9864 152.49C29.9091 152.49 32.2867 150.105 32.2867 147.173V129.396C32.2791 121.131 27.7663 116.193 20.2019 116.193ZM50.6411 116.451C46.3251 116.451 42.9026 117.013 39.5482 118.274C37.8066 118.928 36.6406 120.614 36.6406 122.468C36.6406 124.944 38.6017 126.882 41.108 126.882C41.6229 126.882 42.0545 126.806 42.6451 126.608C44.682 125.97 46.8324 125.666 49.2327 125.666C54.9268 125.666 56.1383 128.819 56.1534 131.485C54.1772 130.839 51.686 130.247 48.2105 130.247C39.1545 130.247 33.9601 134.402 33.9601 141.657V141.786C33.9601 148.342 38.8667 152.749 46.1661 152.749C50.2776 152.749 53.5714 151.495 56.1989 148.927C56.6456 150.804 58.4402 152.498 61.1964 152.498C64.0964 152.498 66.368 150.249 66.368 147.378V131.706C66.368 126.775 65.0807 122.977 62.529 120.424C59.894 117.788 55.896 116.451 50.6411 116.451ZM49.104 145.129C46.0979 145.129 44.2352 143.701 44.2352 141.399V141.27C44.2352 138.527 46.5219 136.962 50.5124 136.962C52.5568 136.962 54.5936 137.365 56.2822 138.094V139.545C56.2822 142.827 53.3291 145.129 49.104 145.129ZM80.5729 121.017C83.314 117.773 86.6911 116.193 90.8708 116.193C98.844 116.193 106.908 122.445 106.908 134.402V134.531C106.908 140.039 105.22 144.704 102.032 148.031C99.1166 151.077 95.1565 152.749 90.8708 152.749C86.7441 152.749 83.4654 151.336 80.6259 148.327V157.443C80.6259 160.376 78.2484 162.761 75.3256 162.761C72.4028 162.761 70.0252 160.376 70.0252 157.443V121.769C70.0252 118.837 72.4028 116.451 75.3256 116.451C77.9985 116.451 80.2095 118.441 80.5729 121.017ZM96.315 134.402C96.315 129.244 92.9 125.347 88.372 125.347C83.8137 125.347 80.4972 129.153 80.4972 134.402V134.531C80.4972 139.781 83.8062 143.587 88.372 143.587C92.9758 143.587 96.315 139.781 96.315 134.531V134.402ZM130.199 116.193C126.02 116.193 122.643 117.773 119.902 121.017C119.538 118.441 117.327 116.451 114.654 116.451C111.731 116.451 109.354 118.837 109.354 121.769V157.443C109.354 160.376 111.731 162.761 114.654 162.761C117.577 162.761 119.955 160.376 119.955 157.443V148.327C122.794 151.336 126.073 152.749 130.199 152.749C134.485 152.749 138.445 151.077 141.36 148.031C144.548 144.704 146.237 140.039 146.237 134.531V134.402C146.237 122.445 138.173 116.193 130.199 116.193ZM127.701 125.347C132.229 125.347 135.644 129.244 135.644 134.402V134.531C135.644 139.781 132.304 143.587 127.701 143.587C123.135 143.587 119.826 139.781 119.826 134.531V134.402C119.826 129.153 123.142 125.347 127.701 125.347ZM169.884 120.462C170.868 117.834 172.625 116.451 174.965 116.451C177.789 116.451 180.008 118.616 180 121.366C180 122.164 179.743 123.319 179.515 123.85L167.559 152.657C164.553 159.958 161.418 162.548 155.581 162.548C153.521 162.548 151.938 162.275 150.121 161.622C148.872 161.166 146.767 159.981 146.767 157.17C146.767 154.405 148.94 152.756 151.037 152.756C151.87 152.756 152.37 152.901 152.771 153.037C153.597 153.296 154.051 153.402 154.679 153.402C156.27 153.402 156.936 153.144 157.739 151.601L157.981 151.024L146.35 123.987C146.085 123.319 145.805 122.285 145.805 121.564C145.805 118.647 148.054 116.444 151.037 116.444C153.498 116.444 155.164 117.735 156.118 120.394L163.122 139.287L169.884 120.462Z" fill="white"/>
<path d="M128 22.3313V53.4038C128 65.7365 117.973 75.7351 105.606 75.7351H103.341L91.7743 87.2622C91.3213 87.7139 90.6946 88 90 88C89.3582 88 88.7769 87.7666 88.3314 87.3751L88.1351 87.1793L88.1276 87.1718L76.6588 75.7351H74.3862C62.0266 75.7351 52 65.7365 52 53.4038V22.3313C52 9.99863 62.0266 0 74.3938 0H105.606C117.973 0 128 9.99863 128 22.3313Z" fill="#FFD666"/>
<path d="M69.6951 43.0454C67.4905 43.0454 66.2339 45.5506 67.513 47.3595C72.4867 54.4059 80.711 59 90.0038 59C99.2965 59 107.513 54.3983 112.487 47.3595C113.766 45.5506 112.51 43.0454 110.305 43.0454H69.6951Z" fill="white"/>
<path d="M82.6072 32.3813H69.3039V25.6906C69.3039 21.9972 72.2836 19 75.9556 19C79.6275 19 82.6072 21.9972 82.6072 25.6906V32.3813Z" fill="white"/>
<path d="M110.704 32.3813H97.4004V25.6906C97.4004 21.9972 100.38 19 104.052 19C107.724 19 110.704 21.9972 110.704 25.6906V32.3813Z" fill="white"/>
<path d="M69.6951 43.0454C67.4905 43.0454 66.2339 45.5506 67.513 47.3595C72.4867 54.4059 80.711 59 90.0038 59C99.2965 59 107.513 54.3983 112.487 47.3595C113.766 45.5506 112.51 43.0454 110.305 43.0454H69.6951Z" fill="white"/>
<path d="M82.6072 32.3813H69.3039V25.6906C69.3039 21.9972 72.2836 19 75.9556 19C79.6275 19 82.6072 21.9972 82.6072 25.6906V32.3813Z" fill="white"/>
<path d="M110.704 32.3813H97.4004V25.6906C97.4004 21.9972 100.38 19 104.052 19C107.724 19 110.704 21.9972 110.704 25.6906V32.3813Z" fill="white"/>
</svg>
